<svg xmlns="http://www.w3.org/2000/svg" width="157.022" height="137.394" viewBox="881.489 569 157.022 137.394"><path d="M1038.511 603.348v88.325c0 8.127-6.594 14.721-14.72 14.721H896.21c-8.127 0-14.72-6.594-14.72-14.72v-88.326c0-8.127 6.593-14.72 14.72-14.72h26.988l3.772-10.09A14.7 14.7 0 0 1 940.74 569h38.49a14.7 14.7 0 0 1 13.77 9.538l3.802 10.09h26.988c8.127 0 14.721 6.593 14.721 14.72Zm-41.709 44.163c0-20.303-16.5-36.802-36.802-36.802s-36.802 16.5-36.802 36.802 16.5 36.802 36.802 36.802c20.303 0 36.802-16.5 36.802-36.802Zm-9.814 0c0 14.874-12.114 26.988-26.988 26.988-14.874 0-26.988-12.114-26.988-26.988 0-14.874 12.114-26.988 26.988-26.988 14.874 0 26.988 12.114 26.988 26.988Z" fill="#492f24" fill-rule="evenodd" data-name="Icon awesome-camera"/></svg>