<svg xmlns="http://www.w3.org/2000/svg" width="733.875" height="728.222" viewBox="-16 810.222 733.875 728.222"><g data-name="Icon material-pets"><path d="M511.656 1134.157c-36.66-6.505-67.662-12.24-104.542-18.592-19.395-3.453-41.66-4.91-61.22 1.164a61.17 61.17 0 0 0-8.826 3.314c-6.203 3.06-12.164 7.205-17.905 11.197-5.74 3.992-11.7 8.137-16.585 13.103a51.796 51.796 0 0 0-5.746 6.82c-11.348 15.42-14.913 34.842-16.05 52.574-1.756 33.221-2.987 61.372-4.963 94.746-6.508 45.625-17.243 98.581 24.113 133.507 23.854 15.411 57.252 23.872 91.135 9.406 18.683-8.287 60.029-55.551 114.78-93.628l3.975-2.764c54.752-38.077 116.116-62.557 129.837-76.491 23.96-25.761 22.624-56.833 11.746-80.954-28.06-44.486-88.414-48.004-139.75-53.402Z" fill="#ffe3c5" fill-rule="evenodd" data-name="Path 6"/><path d="M522.828 958.228c23.624 26.888 18.063 65.87-12.42 87.07-30.482 21.199-74.343 16.587-97.967-10.301-23.624-26.888-18.064-65.87 12.419-87.07 30.483-21.198 74.344-16.587 97.968 10.301Z" fill="#ffe3c5" fill-rule="evenodd" data-name="Path 5"/><path d="M355.04 949.424c23.624 26.888 18.064 65.87-12.419 87.07-30.482 21.199-74.344 16.587-97.968-10.301-23.623-26.888-18.063-65.87 12.42-87.07 30.482-21.198 74.344-16.587 97.968 10.301Z" fill="#ffe3c5" fill-rule="evenodd" data-name="Path 4"/><path d="M222.576 1041.547c23.624 26.888 18.063 65.87-12.42 87.069-30.482 21.199-74.344 16.587-97.967-10.3-23.624-26.889-18.064-65.87 12.419-87.07 30.482-21.2 74.344-16.587 97.968 10.3Z" fill="#ffe3c5" fill-rule="evenodd" data-name="Path 3"/><path d="M191.667 1188.534c23.623 26.888 18.063 65.87-12.42 87.07-30.482 21.199-74.344 16.587-97.968-10.301-23.623-26.888-18.063-65.87 12.42-87.07 30.482-21.198 74.344-16.587 97.968 10.301Z" fill="#ffe3c5" fill-rule="evenodd" data-name="Path 2"/></g></svg>